<?xml version="1.0" standalone="no"?>
<!DOCTYPE svg PUBLIC "-//W3C//DTD SVG 20010904//EN"
 "http://www.w3.org/TR/2001/REC-SVG-20010904/DTD/svg10.dtd">
<svg version="1.0" xmlns="http://www.w3.org/2000/svg"
 width="1024.000000pt" height="1024.000000pt" viewBox="0 0 1024.000000 1024.000000"
 preserveAspectRatio="xMidYMid meet">
<metadata>
Created by potrace 1.11, written by Peter Selinger 2001-2013
</metadata>
<g transform="translate(0.000000,1024.000000) scale(0.100000,-0.100000)"
fill="#000000" stroke="none">
<path d="M2038 10225 c-6 -6 -28 -10 -103 -19 -75 -9 -254 -46 -330 -69 -112
-33 -317 -114 -379 -149 -11 -5 -40 -22 -65 -36 -304 -167 -572 -413 -773
-708 -31 -44 -64 -96 -73 -115 -10 -19 -21 -36 -24 -39 -7 -5 -45 -83 -98
-200 -31 -67 -99 -258 -108 -303 -2 -10 -7 -27 -10 -37 -8 -26 -15 -59 -21
-99 -2 -19 -7 -38 -10 -43 -3 -5 -7 -23 -9 -41 -3 -18 -7 -43 -10 -57 -3 -14
-9 -52 -14 -85 -12 -79 -13 -6143 -1 -6210 5 -27 13 -75 19 -105 18 -105 22
-125 46 -220 13 -52 38 -133 55 -180 18 -47 33 -89 34 -95 7 -26 93 -205 132
-274 10 -19 48 -78 83 -130 217 -328 516 -592 856 -759 151 -74 160 -78 293
-122 120 -40 140 -46 192 -56 14 -2 36 -7 50 -11 14 -3 30 -7 35 -8 22 -5 83
-14 140 -20 33 -4 85 -10 115 -14 69 -8 6096 -6 6167 2 29 4 71 9 94 12 69 9
241 44 284 59 22 7 60 19 85 27 25 7 47 13 50 14 105 32 316 133 439 211 125
79 123 78 145 96 139 110 182 147 249 213 314 311 542 732 623 1150 4 22 8 42
9 45 1 3 5 30 9 60 4 30 10 69 14 85 8 42 8 6215 0 6245 -4 14 -10 44 -12 65
-3 22 -7 51 -10 65 -3 13 -8 42 -12 65 -7 46 -9 55 -17 75 -3 8 -8 29 -11 45
-4 17 -8 35 -10 40 -8 28 -40 131 -41 135 -1 3 -7 19 -14 35 -6 17 -21 55 -33
85 -102 256 -290 534 -504 742 -257 250 -525 412 -879 529 -49 17 -99 32 -110
34 -28 5 -63 13 -83 19 -9 3 -34 8 -56 12 -21 3 -48 8 -60 10 -119 26 -274 27
-3247 31 -1697 2 -3088 1 -3091 -2z m4942 -1315 c30 -5 66 -11 80 -14 14 -3
50 -11 80 -17 30 -6 69 -15 85 -20 83 -25 183 -59 210 -70 17 -7 36 -13 43
-15 14 -3 222 -105 267 -131 166 -98 310 -209 444 -342 103 -102 207 -223 247
-286 10 -16 21 -32 25 -35 10 -8 81 -127 132 -221 52 -96 128 -280 152 -367
36 -128 53 -201 64 -267 6 -38 15 -86 18 -105 11 -52 13 -3695 3 -3770 -5 -36
-12 -90 -16 -120 -3 -30 -8 -58 -10 -61 -2 -3 -6 -21 -9 -40 -3 -19 -8 -42
-11 -51 -3 -9 -6 -25 -8 -35 -2 -10 -10 -38 -17 -63 -7 -25 -14 -49 -15 -55
-38 -149 -193 -464 -304 -615 -185 -253 -449 -496 -670 -616 -19 -10 -37 -22
-40 -25 -5 -7 -183 -93 -250 -122 -81 -34 -257 -89 -323 -101 -15 -3 -35 -7
-45 -10 -53 -16 -177 -33 -312 -43 -116 -8 -3206 -9 -3350 0 -141 8 -185 14
-315 42 -5 1 -28 5 -50 9 -22 4 -51 12 -65 17 -14 5 -34 11 -46 13 -96 19
-331 120 -498 215 -196 112 -453 335 -589 511 -23 30 -47 61 -54 68 -10 10
-76 111 -130 197 -13 21 -130 256 -144 290 -26 62 -57 155 -52 155 3 0 1 6 -4
13 -9 11 -19 41 -28 87 -2 8 -8 33 -14 55 -5 22 -13 56 -16 75 -35 189 -34
155 -31 2090 1 1042 5 1909 8 1925 4 17 9 48 13 70 3 22 13 69 22 105 8 36 16
72 18 80 2 8 4 15 5 15 1 0 3 8 5 17 4 24 56 181 64 193 3 6 6 12 7 15 6 33
127 280 136 280 4 0 8 6 8 13 0 16 124 199 184 272 84 103 230 252 301 307 17
12 39 31 50 41 34 31 193 140 253 174 116 66 362 178 362 166 0 -3 6 -1 13 4
6 6 26 14 42 18 17 5 35 9 40 11 28 8 132 37 148 40 9 2 27 6 40 9 12 3 38 8
57 11 19 3 53 10 75 14 55 11 3647 11 3715 0z"/>
<path d="M3497 8364 c-1 -1 -33 -4 -72 -8 -72 -6 -111 -12 -155 -22 -14 -3
-38 -8 -54 -11 -58 -10 -236 -73 -328 -117 -149 -72 -304 -178 -413 -283 -108
-103 -233 -261 -289 -363 -28 -52 -90 -174 -91 -180 0 -3 -14 -39 -30 -80 -16
-41 -30 -82 -31 -90 -1 -8 -9 -42 -18 -75 -9 -33 -19 -76 -22 -95 -3 -19 -7
-42 -9 -50 -2 -8 -7 -51 -11 -95 -8 -100 -9 -3466 0 -3555 3 -36 8 -81 11
-100 6 -42 9 -60 30 -155 9 -44 44 -153 64 -205 25 -61 93 -202 101 -210 3 -3
18 -26 33 -52 99 -171 310 -386 496 -505 70 -45 249 -134 316 -158 28 -9 57
-20 65 -23 8 -3 20 -6 25 -8 129 -36 209 -52 310 -61 96 -9 3335 -9 3410 0 33
4 71 9 85 12 14 3 39 8 55 11 17 2 48 10 70 15 22 6 48 13 57 14 114 22 430
181 537 270 225 187 365 359 471 578 43 90 104 252 116 311 20 94 34 173 40
232 10 86 10 3481 1 3584 -8 77 -11 103 -21 155 -18 93 -24 120 -26 120 -1 0
-3 8 -6 18 -7 27 -10 41 -18 62 -5 11 -12 34 -18 50 -44 128 -123 275 -232
430 -50 71 -191 217 -266 275 -25 19 -47 37 -50 40 -3 3 -38 27 -78 53 -88 59
-220 127 -310 161 -93 34 -106 39 -114 41 -5 2 -9 3 -10 5 -2 1 -11 3 -20 5
-9 2 -45 10 -80 19 -155 38 -200 39 -1881 40 -901 1 -1639 1 -1640 0z m3905
-727 c42 -21 97 -59 127 -88 48 -47 101 -119 105 -143 1 -6 5 -17 9 -23 5 -7
10 -22 13 -33 2 -11 7 -30 10 -42 22 -90 4 -229 -42 -321 -47 -91 -194 -217
-272 -232 -9 -2 -17 -4 -17 -5 0 -6 -51 -12 -115 -15 -71 -4 -170 11 -186 28
-4 4 -13 7 -20 7 -26 0 -121 69 -169 122 -88 98 -119 190 -112 334 5 117 8
128 44 200 53 105 180 209 293 241 28 8 86 12 151 10 100 -3 111 -6 181 -40z
m-2022 -501 c177 -25 359 -64 465 -101 125 -43 170 -62 270 -110 93 -45 288
-163 305 -184 3 -3 23 -19 45 -35 40 -30 208 -195 255 -251 89 -106 179 -249
240 -380 39 -83 123 -305 115 -305 -2 0 3 -21 11 -47 38 -125 68 -375 68 -563
0 -83 -12 -273 -19 -292 -4 -13 -12 -57 -21 -118 -2 -19 -7 -43 -10 -52 -3 -9
-6 -25 -8 -35 -2 -10 -10 -38 -17 -63 -7 -25 -13 -47 -14 -50 -12 -46 -40
-123 -69 -195 -161 -390 -444 -729 -804 -960 -82 -52 -283 -155 -305 -155 -7
0 -17 -3 -21 -8 -4 -4 -11 -7 -14 -8 -4 0 -20 -6 -37 -13 -16 -7 -34 -14 -40
-15 -5 -1 -15 -4 -20 -8 -11 -7 -241 -64 -290 -72 -93 -16 -159 -20 -335 -20
-217 -1 -283 5 -440 38 -14 3 -38 8 -55 12 -84 17 -299 95 -405 147 -81 39
-239 133 -285 169 -5 4 -35 27 -65 50 -123 94 -336 309 -374 377 -5 9 -12 18
-15 21 -15 12 -61 80 -61 88 0 6 -4 12 -8 14 -8 3 -72 104 -72 113 0 2 -13 26
-28 52 -51 87 -172 393 -155 393 3 0 1 6 -4 13 -6 6 -13 28 -17 47 -3 19 -9
46 -11 60 -31 143 -34 184 -31 455 2 154 6 291 9 305 7 29 26 115 31 145 2 11
14 54 26 95 13 41 24 80 26 85 12 55 139 338 155 343 5 2 9 9 9 16 0 11 115
195 130 206 3 3 13 15 21 27 44 65 200 231 289 308 164 142 354 258 550 335
98 39 244 85 303 96 17 2 33 7 36 9 8 4 71 14 137 21 26 2 50 7 52 9 7 6 448
-2 502 -9z"/>
<path d="M5027 6464 c-1 -1 -36 -5 -77 -8 -464 -41 -901 -380 -1071 -831 -15
-38 -30 -79 -34 -90 -5 -11 -9 -24 -11 -30 -5 -21 -33 -141 -39 -170 -11 -50
-14 -326 -5 -385 19 -124 20 -128 57 -245 113 -360 398 -670 754 -821 46 -20
91 -37 99 -40 8 -2 40 -10 70 -18 75 -20 146 -34 222 -41 52 -6 225 -6 259 0
13 2 47 6 74 10 28 3 68 11 90 17 22 5 48 12 57 14 10 2 26 6 36 8 9 2 42 14
72 26 330 131 573 350 729 656 39 76 96 221 105 267 3 12 12 54 20 92 35 161
39 372 11 545 -13 77 -18 102 -39 175 -37 126 -116 294 -162 346 -8 8 -14 18
-14 21 0 26 -179 198 -265 256 -119 79 -305 161 -421 187 -118 26 -175 37
-204 40 -166 15 -307 24 -313 19z"/>
</g>
</svg>
